<svg width="524" height="1063" viewBox="0 0 524 1063" fill="none" xmlns="http://www.w3.org/2000/svg">
<mask id="mask0_946_298" style="mask-type:alpha" maskUnits="userSpaceOnUse" x="0" y="0" width="524" height="1063">
<rect width="524" height="1063" fill="#D9D9D9"/>
</mask>
<g mask="url(#mask0_946_298)">
<rect x="-1.19209e-07" y="-1.41421" width="60" height="60" transform="matrix(0.707107 -0.707107 -0.707107 -0.707107 -2.94482 1035.17)" stroke="#EBEBEB" stroke-width="2"/>
<rect x="-1.19209e-07" y="-1.41421" width="60" height="60" transform="matrix(0.707107 -0.707107 -0.707107 -0.707107 -2.94482 950.319)" stroke="#EBEBEB" stroke-width="2"/>
<rect x="-1.19209e-07" y="-1.41421" width="60" height="60" transform="matrix(0.707107 -0.707107 -0.707107 -0.707107 39.4814 992.745)" stroke="#EBEBEB" stroke-width="2"/>
<rect x="-1.19209e-07" y="-1.41421" width="60" height="60" transform="matrix(0.707107 -0.707107 -0.707107 -0.707107 39.4814 907.893)" stroke="#EBEBEB" stroke-width="2"/>
<rect x="-1.19209e-07" y="-1.41421" width="60" height="60" transform="matrix(0.707107 -0.707107 -0.707107 -0.707107 81.9082 950.319)" stroke="#EBEBEB" stroke-width="2"/>
<rect x="-1.19209e-07" y="-1.41421" width="60" height="60" transform="matrix(0.707107 -0.707107 -0.707107 -0.707107 -2.94482 865.466)" stroke="#EBEBEB" stroke-width="2"/>
<rect x="-1.19209e-07" y="-1.41421" width="60" height="60" transform="matrix(0.707107 -0.707107 -0.707107 -0.707107 81.9082 865.466)" stroke="#EBEBEB" stroke-width="2"/>
<rect x="-1.19209e-07" y="-1.41421" width="60" height="60" transform="matrix(0.707107 -0.707107 -0.707107 -0.707107 124.334 907.893)" stroke="#EBEBEB" stroke-width="2"/>
<rect x="-1.19209e-07" y="-1.41421" width="60" height="60" transform="matrix(0.707107 -0.707107 -0.707107 -0.707107 39.4814 823.04)" stroke="#EBEBEB" stroke-width="2"/>
<rect x="-1.19209e-07" y="-1.41421" width="60" height="60" transform="matrix(0.707107 -0.707107 -0.707107 -0.707107 124.334 823.04)" stroke="#EBEBEB" stroke-width="2"/>
<rect x="-1.19209e-07" y="-1.41421" width="60" height="60" transform="matrix(0.707107 -0.707107 -0.707107 -0.707107 166.761 865.466)" stroke="#EBEBEB" stroke-width="2"/>
<rect x="-1.19209e-07" y="-1.41421" width="60" height="60" transform="matrix(0.707107 -0.707107 -0.707107 -0.707107 81.9082 780.614)" stroke="#EBEBEB" stroke-width="2"/>
<rect x="-1.19209e-07" y="-1.41421" width="60" height="60" transform="matrix(0.707107 -0.707107 -0.707107 -0.707107 166.761 780.614)" stroke="#EBEBEB" stroke-width="2"/>
<rect x="-1.19209e-07" y="-1.41421" width="60" height="60" transform="matrix(0.707107 -0.707107 -0.707107 -0.707107 209.187 823.04)" stroke="#EBEBEB" stroke-width="2"/>
<rect x="-1.19209e-07" y="-1.41421" width="60" height="60" transform="matrix(0.707107 -0.707107 -0.707107 -0.707107 124.334 738.187)" stroke="#EBEBEB" stroke-width="2"/>
<rect x="-1.19209e-07" y="-1.41421" width="60" height="60" transform="matrix(0.707107 -0.707107 -0.707107 -0.707107 209.187 738.187)" stroke="#EBEBEB" stroke-width="2"/>
<rect x="-1.19209e-07" y="-1.41421" width="60" height="60" transform="matrix(0.707107 -0.707107 -0.707107 -0.707107 251.614 780.614)" stroke="#EBEBEB" stroke-width="2"/>
<rect x="-1.19209e-07" y="-1.41421" width="60" height="60" transform="matrix(0.707107 -0.707107 -0.707107 -0.707107 166.761 695.761)" stroke="#EBEBEB" stroke-width="2"/>
<rect x="-1.19209e-07" y="-1.41421" width="60" height="60" transform="matrix(0.707107 -0.707107 -0.707107 -0.707107 251.614 695.761)" stroke="#EBEBEB" stroke-width="2"/>
<rect x="-1.19209e-07" y="-1.41421" width="60" height="60" transform="matrix(0.707107 -0.707107 -0.707107 -0.707107 -2.61572 441.531)" stroke="#EBEBEB" stroke-width="2"/>
<rect x="-1.19209e-07" y="-1.41421" width="60" height="60" transform="matrix(0.707107 -0.707107 -0.707107 -0.707107 294.04 738.187)" stroke="#EBEBEB" stroke-width="2"/>
<rect x="-1.19209e-07" y="-1.41421" width="60" height="60" transform="matrix(0.707107 -0.707107 -0.707107 -0.707107 209.187 653.334)" stroke="#EBEBEB" stroke-width="2"/>
<rect x="-1.19209e-07" y="-1.41421" width="60" height="60" transform="matrix(0.707107 -0.707107 -0.707107 -0.707107 -2.61572 356.678)" stroke="#EBEBEB" stroke-width="2"/>
<rect x="-1.19209e-07" y="-1.41421" width="60" height="60" transform="matrix(0.707107 -0.707107 -0.707107 -0.707107 294.04 653.334)" stroke="#EBEBEB" stroke-width="2"/>
<rect x="-1.19209e-07" y="-1.41421" width="60" height="60" transform="matrix(0.707107 -0.707107 -0.707107 -0.707107 39.8105 399.105)" stroke="#EBEBEB" stroke-width="2"/>
<rect x="-1.19209e-07" y="-1.41421" width="60" height="60" transform="matrix(0.707107 -0.707107 -0.707107 -0.707107 336.466 695.761)" stroke="#EBEBEB" stroke-width="2"/>
<rect x="-1.19209e-07" y="-1.41421" width="60" height="60" transform="matrix(0.707107 -0.707107 -0.707107 -0.707107 251.614 610.908)" stroke="#EBEBEB" stroke-width="2"/>
<rect x="-1.19209e-07" y="-1.41421" width="60" height="60" transform="matrix(0.707107 -0.707107 -0.707107 -0.707107 39.8105 314.252)" stroke="#EBEBEB" stroke-width="2"/>
<rect x="-1.19209e-07" y="-1.41421" width="60" height="60" transform="matrix(0.707107 -0.707107 -0.707107 -0.707107 336.466 610.908)" stroke="#EBEBEB" stroke-width="2"/>
<rect x="-1.19209e-07" y="-1.41421" width="60" height="60" transform="matrix(0.707107 -0.707107 -0.707107 -0.707107 82.2368 356.678)" stroke="#EBEBEB" stroke-width="2"/>
<rect x="-1.19209e-07" y="-1.41421" width="60" height="60" transform="matrix(0.707107 -0.707107 -0.707107 -0.707107 378.893 653.334)" stroke="#EBEBEB" stroke-width="2"/>
<rect x="-1.19209e-07" y="-1.41421" width="60" height="60" transform="matrix(0.707107 -0.707107 -0.707107 -0.707107 -2.61572 271.826)" stroke="#EBEBEB" stroke-width="2"/>
<rect x="-1.19209e-07" y="-1.41421" width="60" height="60" transform="matrix(0.707107 -0.707107 -0.707107 -0.707107 294.04 568.481)" stroke="#EBEBEB" stroke-width="2"/>
<rect x="-1.19209e-07" y="-1.41421" width="60" height="60" transform="matrix(0.707107 -0.707107 -0.707107 -0.707107 124.663 229.399)" stroke="#EBEBEB" stroke-width="2"/>
<rect x="-1.19209e-07" y="-1.41421" width="60" height="60" transform="matrix(0.707107 -0.707107 -0.707107 -0.707107 421.319 526.055)" stroke="#EBEBEB" stroke-width="2"/>
<rect x="-1.19209e-07" y="-1.41421" width="60" height="60" transform="matrix(0.707107 -0.707107 -0.707107 -0.707107 167.09 271.826)" stroke="#EBEBEB" stroke-width="2"/>
<rect x="-1.19209e-07" y="-1.41421" width="60" height="60" transform="matrix(0.707107 -0.707107 -0.707107 -0.707107 463.746 568.481)" stroke="#EBEBEB" stroke-width="2"/>
<rect x="-1.19209e-07" y="-1.41421" width="60" height="60" transform="matrix(0.707107 -0.707107 -0.707107 -0.707107 82.2368 186.973)" stroke="#EBEBEB" stroke-width="2"/>
<rect x="-1.19209e-07" y="-1.41421" width="60" height="60" transform="matrix(0.707107 -0.707107 -0.707107 -0.707107 378.893 483.629)" stroke="#EBEBEB" stroke-width="2"/>
<rect x="-1.19209e-07" y="-1.41421" width="60" height="60" transform="matrix(0.707107 -0.707107 -0.707107 -0.707107 82.2368 271.826)" stroke="#EBEBEB" stroke-width="2"/>
<rect x="-1.19209e-07" y="-1.41421" width="60" height="60" transform="matrix(0.707107 -0.707107 -0.707107 -0.707107 378.893 568.481)" stroke="#EBEBEB" stroke-width="2"/>
<rect x="-1.19209e-07" y="-1.41421" width="60" height="60" transform="matrix(0.707107 -0.707107 -0.707107 -0.707107 124.663 314.252)" stroke="#EBEBEB" stroke-width="2"/>
<rect x="-1.19209e-07" y="-1.41421" width="60" height="60" transform="matrix(0.707107 -0.707107 -0.707107 -0.707107 421.319 610.908)" stroke="#EBEBEB" stroke-width="2"/>
<rect x="-1.19209e-07" y="-1.41421" width="60" height="60" transform="matrix(0.707107 -0.707107 -0.707107 -0.707107 39.8105 229.399)" stroke="#EBEBEB" stroke-width="2"/>
<rect x="-1.19209e-07" y="-1.41421" width="60" height="60" transform="matrix(0.707107 -0.707107 -0.707107 -0.707107 336.466 526.055)" stroke="#EBEBEB" stroke-width="2"/>
<rect x="-1.19209e-07" y="-1.41421" width="60" height="60" transform="matrix(0.707107 -0.707107 -0.707107 -0.707107 -2.94482 780.614)" stroke="#EBEBEB" stroke-width="2"/>
<rect x="-1.19209e-07" y="-1.41421" width="60" height="60" transform="matrix(0.707107 -0.707107 -0.707107 -0.707107 39.4814 738.187)" stroke="#EBEBEB" stroke-width="2"/>
<rect x="-1.19209e-07" y="-1.41421" width="60" height="60" transform="matrix(0.707107 -0.707107 -0.707107 -0.707107 -2.94482 695.761)" stroke="#EBEBEB" stroke-width="2"/>
<rect x="-1.19209e-07" y="-1.41421" width="60" height="60" transform="matrix(0.707107 -0.707107 -0.707107 -0.707107 81.9082 695.761)" stroke="#EBEBEB" stroke-width="2"/>
<rect x="-1.19209e-07" y="-1.41421" width="60" height="60" transform="matrix(0.707107 -0.707107 -0.707107 -0.707107 -2.94482 610.908)" stroke="#EBEBEB" stroke-width="2"/>
<rect x="-1.19209e-07" y="-1.41421" width="60" height="60" transform="matrix(0.707107 -0.707107 -0.707107 -0.707107 39.4814 653.334)" stroke="#EBEBEB" stroke-width="2"/>
<rect x="-1.19209e-07" y="-1.41421" width="60" height="60" transform="matrix(0.707107 -0.707107 -0.707107 -0.707107 124.334 653.334)" stroke="#EBEBEB" stroke-width="2"/>
<rect x="-1.19209e-07" y="-1.41421" width="60" height="60" transform="matrix(0.707107 -0.707107 -0.707107 -0.707107 39.4814 568.481)" stroke="#EBEBEB" stroke-width="2"/>
<rect x="-1.19209e-07" y="-1.41421" width="60" height="60" transform="matrix(0.707107 -0.707107 -0.707107 -0.707107 81.9082 610.908)" stroke="#EBEBEB" stroke-width="2"/>
<rect x="-1.19209e-07" y="-1.41421" width="60" height="60" transform="matrix(0.707107 -0.707107 -0.707107 -0.707107 -2.94482 526.055)" stroke="#EBEBEB" stroke-width="2"/>
<rect x="-1.19209e-07" y="-1.41421" width="60" height="60" transform="matrix(0.707107 -0.707107 -0.707107 -0.707107 166.761 610.908)" stroke="#EBEBEB" stroke-width="2"/>
<rect x="-1.19209e-07" y="-1.41421" width="60" height="60" transform="matrix(0.707107 -0.707107 -0.707107 -0.707107 81.9082 526.055)" stroke="#EBEBEB" stroke-width="2"/>
<rect x="-1.19209e-07" y="-1.41421" width="60" height="60" transform="matrix(0.707107 -0.707107 -0.707107 -0.707107 124.334 568.481)" stroke="#EBEBEB" stroke-width="2"/>
<rect x="-1.19209e-07" y="-1.41421" width="60" height="60" transform="matrix(0.707107 -0.707107 -0.707107 -0.707107 39.4814 483.629)" stroke="#EBEBEB" stroke-width="2"/>
<rect x="-1.19209e-07" y="-1.41421" width="60" height="60" transform="matrix(0.707107 -0.707107 -0.707107 -0.707107 209.187 568.481)" stroke="#EBEBEB" stroke-width="2"/>
<rect x="-1.19209e-07" y="-1.41421" width="60" height="60" transform="matrix(0.707107 -0.707107 -0.707107 -0.707107 124.334 483.629)" stroke="#EBEBEB" stroke-width="2"/>
<rect x="-1.19209e-07" y="-1.41421" width="60" height="60" transform="matrix(0.707107 -0.707107 -0.707107 -0.707107 166.761 526.055)" stroke="#EBEBEB" stroke-width="2"/>
<rect x="-1.19209e-07" y="-1.41421" width="60" height="60" transform="matrix(0.707107 -0.707107 -0.707107 -0.707107 81.9082 441.202)" stroke="#EBEBEB" stroke-width="2"/>
<rect x="-1.19209e-07" y="-1.41421" width="60" height="60" transform="matrix(0.707107 -0.707107 -0.707107 -0.707107 251.614 526.055)" stroke="#EBEBEB" stroke-width="2"/>
<rect x="-1.19209e-07" y="-1.41421" width="60" height="60" transform="matrix(0.707107 -0.707107 -0.707107 -0.707107 166.761 441.202)" stroke="#EBEBEB" stroke-width="2"/>
<rect x="-1.19209e-07" y="-1.41421" width="60" height="60" transform="matrix(0.707107 -0.707107 -0.707107 -0.707107 209.187 483.629)" stroke="#EBEBEB" stroke-width="2"/>
<rect x="-1.19209e-07" y="-1.41421" width="60" height="60" transform="matrix(0.707107 -0.707107 -0.707107 -0.707107 124.334 398.776)" stroke="#EBEBEB" stroke-width="2"/>
<rect x="-1.19209e-07" y="-1.41421" width="60" height="60" transform="matrix(0.707107 -0.707107 -0.707107 -0.707107 39.8105 144.546)" stroke="#EBEBEB" stroke-width="2"/>
<rect x="-1.19209e-07" y="-1.41421" width="60" height="60" transform="matrix(0.707107 -0.707107 -0.707107 -0.707107 336.466 441.202)" stroke="#EBEBEB" stroke-width="2"/>
<rect x="-1.19209e-07" y="-1.41421" width="60" height="60" transform="matrix(0.707107 -0.707107 -0.707107 -0.707107 251.614 356.349)" stroke="#EBEBEB" stroke-width="2"/>
<rect x="-1.19209e-07" y="-1.41421" width="60" height="60" transform="matrix(0.707107 -0.707107 -0.707107 -0.707107 -2.61572 102.12)" stroke="#EBEBEB" stroke-width="2"/>
<rect x="-1.19209e-07" y="-1.41421" width="60" height="60" transform="matrix(0.707107 -0.707107 -0.707107 -0.707107 294.04 398.776)" stroke="#EBEBEB" stroke-width="2"/>
<rect x="-1.19209e-07" y="-1.41421" width="60" height="60" transform="matrix(0.707107 -0.707107 -0.707107 -0.707107 209.187 313.923)" stroke="#EBEBEB" stroke-width="2"/>
<rect x="-1.19209e-07" y="-1.41421" width="60" height="60" transform="matrix(0.707107 -0.707107 -0.707107 -0.707107 -2.61572 186.973)" stroke="#EBEBEB" stroke-width="2"/>
<rect x="-1.19209e-07" y="-1.41421" width="60" height="60" transform="matrix(0.707107 -0.707107 -0.707107 -0.707107 294.04 483.629)" stroke="#EBEBEB" stroke-width="2"/>
<rect x="-1.19209e-07" y="-1.41421" width="60" height="60" transform="matrix(0.707107 -0.707107 -0.707107 -0.707107 209.187 398.776)" stroke="#EBEBEB" stroke-width="2"/>
<rect x="-1.19209e-07" y="-1.41421" width="60" height="60" transform="matrix(0.707107 -0.707107 -0.707107 -0.707107 251.614 441.202)" stroke="#EBEBEB" stroke-width="2"/>
<rect x="-1.19209e-07" y="-1.41421" width="60" height="60" transform="matrix(0.707107 -0.707107 -0.707107 -0.707107 166.761 356.349)" stroke="#EBEBEB" stroke-width="2"/>
</g>
</svg>
