<svg width="113" height="34" viewBox="0 0 113 34" fill="none" xmlns="http://www.w3.org/2000/svg">
<path d="M5.87707 21.0659C2.92677 21.0659 0.401244 22.4349 0.401244 25.2672C0.401244 28.3591 2.92677 28.8548 4.86217 29.1853C6.08955 29.3977 7.08087 29.6101 7.08087 30.3654C7.08087 30.8374 6.65597 31.2151 5.61748 31.2151C4.22492 31.2151 3.75285 30.389 3.4932 29.6101L0 30.9318C0.448482 32.7256 2.10064 34.0002 5.47583 34.0002C8.56784 34.0002 11.3057 32.6785 11.3057 29.5865C11.3057 26.589 8.87467 26.0933 6.93922 25.8101C5.64107 25.6213 4.57893 25.456 4.57893 24.6771C4.57893 24.1579 5.07458 23.851 5.85349 23.851C6.8448 23.851 7.3877 24.5119 7.69453 25.3616L11.0933 24.2051C10.3616 22.1752 8.61502 21.0659 5.87707 21.0659Z" fill="#412F78"/>
<path d="M21.5966 33.009L21.0301 30.1767C20.5581 30.4363 19.7556 30.7195 19.0475 30.7195C18.1034 30.7195 17.7729 30.2474 17.7729 29.2561V24.2524H20.983V21.3256H17.7729V17.0771L13.3593 17.6436V21.3256H11.5419V24.2524H13.3593V29.7518C13.3593 32.7494 14.8462 34.0003 17.6078 34.0003C19.4016 34.0003 20.9593 33.4102 21.5966 33.009Z" fill="#412F78"/>
<path d="M22.5643 21.3257V29.9171C22.5643 32.6551 23.886 34.0004 26.4115 34.0004C28.0873 34.0004 29.3618 33.2923 30.0699 32.301L30.4004 33.7171H34.1768V21.3257H29.7631V29.8699C29.4091 30.2239 28.7718 30.578 28.1345 30.578C27.332 30.578 26.978 30.1768 26.978 29.0438V21.3257H22.5643Z" fill="#412F78"/>
<path d="M48.2677 33.717V15.897H43.8539V22.0573C43.2403 21.4436 42.4614 21.066 41.116 21.066C38.6378 21.066 35.8762 22.7889 35.8762 27.7928C35.8762 32.2065 37.906 34.0003 40.8564 34.0003C42.3905 34.0003 43.5235 33.4574 44.2552 32.5133L44.3496 32.5369L44.6092 33.717H48.2677ZM43.8539 24.9132V30.1058C43.4055 30.5071 42.9098 30.6487 42.4614 30.6487C41.0688 30.6487 40.526 29.4213 40.526 27.6275C40.526 25.8573 41.0924 24.4176 42.5558 24.4176C43.0279 24.4176 43.4527 24.5828 43.8539 24.9132Z" fill="#412F78"/>
<path d="M56.1746 34.0002C59.4318 34.0002 61.2256 32.4188 61.6505 30.1766L58.1572 29.3269C57.992 30.2238 57.4491 30.8374 56.4342 30.8374C55.1125 30.8374 54.5696 30.1294 54.5696 28.2884H61.6268C61.6741 27.8871 61.6741 27.3206 61.6741 26.943C61.6741 23.3554 60.0219 21.0659 56.1038 21.0659C52.705 21.0659 49.9199 23.1194 49.9199 27.5567C49.9199 30.9083 51.4777 34.0002 56.1746 34.0002ZM57.1187 25.9989H54.6168C54.5933 24.4411 55.2541 23.969 55.915 23.969C56.5995 23.969 57.1659 24.3231 57.1187 25.9989Z" fill="#412F78"/>
<path d="M75.0804 33.717V25.22C75.0804 22.3877 73.8531 21.0659 71.0915 21.0659C69.4157 21.0659 68.1647 21.7504 67.4095 22.5293L67.1971 21.3255H63.279V33.717H67.6927V25.1728C68.0468 24.8188 68.7076 24.4647 69.4157 24.4647C70.1946 24.4647 70.6667 24.8659 70.6667 25.9989V33.717H75.0804Z" fill="#412F78"/>
<path d="M86.103 33.009L85.5365 30.1767C85.0645 30.4363 84.262 30.7195 83.5539 30.7195C82.6098 30.7195 82.2794 30.2474 82.2794 29.2561V24.2524H85.4893V21.3256H82.2794V17.0771L77.8656 17.6436V21.3256H76.0482V24.2524H77.8656V29.7518C77.8656 32.7494 79.3526 34.0003 82.1141 34.0003C83.9079 34.0003 85.4657 33.4102 86.103 33.009Z" fill="#412F78"/>
<path d="M92.3574 21.0659C89.4071 21.0659 86.8816 22.4349 86.8816 25.2672C86.8816 28.3591 89.4071 28.8548 91.3425 29.1853C92.5698 29.3977 93.5612 29.6101 93.5612 30.3654C93.5612 30.8374 93.1363 31.2151 92.0978 31.2151C90.7053 31.2151 90.2332 30.389 89.9735 29.6101L86.4803 30.9318C86.9288 32.7256 88.581 34.0002 91.9562 34.0002C95.0481 34.0002 97.7861 32.6785 97.7861 29.5865C97.7861 26.589 95.355 26.0933 93.4196 25.8101C92.1214 25.6213 91.0593 25.456 91.0593 24.6771C91.0593 24.1579 91.5549 23.851 92.3338 23.851C93.3252 23.851 93.868 24.5119 94.1748 25.3616L97.5737 24.2051C96.8419 22.1752 95.0954 21.0659 92.3574 21.0659Z" fill="#412F78"/>
<path fill-rule="evenodd" clip-rule="evenodd" d="M53.1729 15.1359C50.2695 15.1359 47.9124 12.7787 47.9124 9.8753V5.26056C47.9124 2.35719 50.2695 0 53.1729 0H107.505C110.408 0 112.765 2.35719 112.765 5.26056V9.8753C112.765 12.7787 110.408 15.1359 107.505 15.1359H101.529C101.048 15.1359 100.302 15.7179 100.222 17.3724C100.186 18.1032 100.095 19.3648 100.208 20.5905C100.355 22.1758 100.265 22.8694 99.6024 22.8694C98.9604 22.8694 98.505 21.8695 97.6648 20.1422C96.9684 18.7107 96.1548 17.2874 95.7237 16.5983C95.198 15.7582 94.3986 15.1359 93.3485 15.1359H53.1729ZM91.092 12.5776C92.1857 12.5776 92.9414 12.0606 92.9414 10.768V5.18017H91.44V10.599C91.44 11.2254 91.1517 11.3746 90.7937 11.3746C90.4756 11.3746 90.1475 11.2553 89.9784 11.1757L89.8691 12.2992C90.0579 12.4285 90.5551 12.5776 91.092 12.5776ZM69.3271 9.60472C69.3271 9.02806 69.0189 8.7198 68.4024 8.7198C67.776 8.7198 67.4778 9.02806 67.4778 9.60472C67.4778 10.1914 67.776 10.4797 68.4024 10.4797C69.0189 10.4797 69.3271 10.1715 69.3271 9.60472ZM77.5598 10.4797C78.8424 10.4797 79.8466 9.91298 79.8466 8.73972C79.8466 7.52668 78.8822 7.3278 78.0271 7.1687C77.3808 7.0494 76.9633 6.96988 76.9633 6.56224C76.9633 6.27385 77.172 6.06509 77.6692 6.06509C78.216 6.06509 78.4348 6.37329 78.5541 6.82072L79.7572 6.4628C79.5086 5.58781 78.8623 5.0708 77.6891 5.0708C76.5258 5.0708 75.5315 5.61767 75.5315 6.75113C75.5315 8.0139 76.5755 8.20279 77.4007 8.36188C77.9874 8.47125 78.395 8.58063 78.395 8.97833C78.395 9.31639 78.1166 9.48541 77.6095 9.48541C76.9036 9.48541 76.6948 9.09764 76.5755 8.69L75.3624 9.10757C75.5315 9.97263 76.2374 10.4797 77.5598 10.4797ZM72.2105 10.4797C74.0699 10.4797 74.8454 9.37604 74.8454 7.68577C74.8454 6.15454 74.1494 5.0708 72.3498 5.0708C70.5501 5.0708 69.6851 6.13468 69.6851 7.79515C69.6851 9.34618 70.3314 10.4797 72.2105 10.4797ZM84.0425 10.1118L83.8338 9.04792C83.6349 9.16722 83.277 9.28653 82.9786 9.28653C82.5014 9.28653 82.3721 9.04792 82.3721 8.59056V6.27385H83.7442V5.18017H82.3721V3.45012L80.8708 3.64894V5.18017H80.0952V6.27385H80.8708V8.79938C80.8708 9.98256 81.4375 10.4797 82.5213 10.4797C83.1775 10.4797 83.784 10.2808 84.0425 10.1118ZM90.7838 6.54232V5.08073C90.6943 5.0708 90.6048 5.0708 90.5252 5.0708C89.7298 5.0708 89.2426 5.48837 88.8946 5.99545L88.7852 5.18017H87.5026V10.3604H89.004V7.00967C89.4415 6.66162 90.1077 6.48266 90.7838 6.54232ZM72.2802 9.36611C71.5444 9.36611 71.256 8.90875 71.256 7.75536C71.256 6.63183 71.6339 6.20426 72.31 6.20426C72.9761 6.20426 73.2844 6.60197 73.2844 7.7355C73.2844 8.94848 72.9364 9.36611 72.2802 9.36611ZM84.0226 8.10334H86.7171V6.82072H84.0226V8.10334ZM93.1005 3.55949C93.1005 2.98276 92.7724 2.66464 92.1956 2.66464C91.6289 2.66464 91.2908 2.98276 91.2908 3.55949C91.2908 4.14609 91.6289 4.48414 92.1956 4.48414C92.7724 4.48414 93.1005 4.14609 93.1005 3.55949Z" fill="#412F78"/>
</svg>
