<svg width="809" height="809" viewBox="0 0 809 809" fill="none" xmlns="http://www.w3.org/2000/svg">
<rect x="552.957" y="765.089" width="60" height="60" transform="rotate(-135 552.957 765.089)" stroke="#B0B0B0" stroke-width="2"/>
<rect x="510.531" y="807.515" width="60" height="60" transform="rotate(-135 510.531 807.515)" stroke="#B0B0B0" stroke-width="2"/>
<rect x="595.384" y="722.663" width="60" height="60" transform="rotate(-135 595.384 722.663)" stroke="#B0B0B0" stroke-width="2"/>
<rect x="510.531" y="722.663" width="60" height="60" transform="rotate(-135 510.531 722.663)" stroke="#B0B0B0" stroke-width="2"/>
<rect x="468.105" y="765.089" width="60" height="60" transform="rotate(-135 468.105 765.089)" stroke="#B0B0B0" stroke-width="2"/>
<rect x="552.957" y="680.236" width="60" height="60" transform="rotate(-135 552.957 680.236)" stroke="#B0B0B0" stroke-width="2"/>
<rect x="468.105" y="680.236" width="60" height="60" transform="rotate(-135 468.105 680.236)" stroke="#B0B0B0" stroke-width="2"/>
<rect x="425.678" y="722.663" width="60" height="60" transform="rotate(-135 425.678 722.663)" stroke="#B0B0B0" stroke-width="2"/>
<rect x="510.531" y="637.809" width="60" height="60" transform="rotate(-135 510.531 637.809)" stroke="#B0B0B0" stroke-width="2"/>
<rect x="425.678" y="637.809" width="60" height="60" transform="rotate(-135 425.678 637.809)" stroke="#B0B0B0" stroke-width="2"/>
<rect x="383.252" y="680.236" width="60" height="60" transform="rotate(-135 383.252 680.236)" stroke="#B0B0B0" stroke-width="2"/>
<rect x="468.105" y="595.384" width="60" height="60" transform="rotate(-135 468.105 595.384)" stroke="#B0B0B0" stroke-width="2"/>
<rect x="383.252" y="595.384" width="60" height="60" transform="rotate(-135 383.252 595.384)" stroke="#B0B0B0" stroke-width="2"/>
<rect x="340.825" y="637.809" width="60" height="60" transform="rotate(-135 340.825 637.809)" stroke="#B0B0B0" stroke-width="2"/>
<rect x="425.678" y="552.957" width="60" height="60" transform="rotate(-135 425.678 552.957)" stroke="#B0B0B0" stroke-width="2"/>
<rect x="340.825" y="552.957" width="60" height="60" transform="rotate(-135 340.825 552.957)" stroke="#B0B0B0" stroke-width="2"/>
<rect x="298.399" y="595.384" width="60" height="60" transform="rotate(-135 298.399 595.384)" stroke="#B0B0B0" stroke-width="2"/>
<rect x="383.252" y="510.531" width="60" height="60" transform="rotate(-135 383.252 510.531)" stroke="#B0B0B0" stroke-width="2"/>
<rect x="298.399" y="510.531" width="60" height="60" transform="rotate(-135 298.399 510.531)" stroke="#B0B0B0" stroke-width="2"/>
<rect x="255.973" y="552.957" width="60" height="60" transform="rotate(-135 255.973 552.957)" stroke="#B0B0B0" stroke-width="2"/>
<rect x="340.825" y="468.104" width="60" height="60" transform="rotate(-135 340.825 468.104)" stroke="#B0B0B0" stroke-width="2"/>
<rect x="255.973" y="468.104" width="60" height="60" transform="rotate(-135 255.973 468.104)" stroke="#B0B0B0" stroke-width="2"/>
<rect x="213.546" y="510.531" width="60" height="60" transform="rotate(-135 213.546 510.531)" stroke="#B0B0B0" stroke-width="2"/>
<rect x="298.399" y="425.678" width="60" height="60" transform="rotate(-135 298.399 425.678)" stroke="#B0B0B0" stroke-width="2"/>
<rect x="213.546" y="425.678" width="60" height="60" transform="rotate(-135 213.546 425.678)" stroke="#B0B0B0" stroke-width="2"/>
<rect x="171.12" y="468.104" width="60" height="60" transform="rotate(-135 171.12 468.104)" stroke="#B0B0B0" stroke-width="2"/>
<rect x="255.973" y="383.251" width="60" height="60" transform="rotate(-135 255.973 383.251)" stroke="#B0B0B0" stroke-width="2"/>
<rect x="171.12" y="383.251" width="60" height="60" transform="rotate(-135 171.12 383.251)" stroke="#B0B0B0" stroke-width="2"/>
<rect x="128.693" y="425.678" width="60" height="60" transform="rotate(-135 128.693 425.678)" stroke="#B0B0B0" stroke-width="2"/>
<rect x="213.546" y="340.825" width="60" height="60" transform="rotate(-135 213.546 340.825)" stroke="#B0B0B0" stroke-width="2"/>
<rect x="86.2669" y="298.399" width="60" height="60" transform="rotate(-135 86.2669 298.399)" stroke="#B0B0B0" stroke-width="2"/>
<rect x="43.8405" y="340.825" width="60" height="60" transform="rotate(-135 43.8405 340.825)" stroke="#B0B0B0" stroke-width="2"/>
<rect x="128.693" y="255.972" width="60" height="60" transform="rotate(-135 128.693 255.972)" stroke="#B0B0B0" stroke-width="2"/>
<rect x="128.693" y="340.825" width="60" height="60" transform="rotate(-135 128.693 340.825)" stroke="#B0B0B0" stroke-width="2"/>
<rect x="86.2669" y="383.251" width="60" height="60" transform="rotate(-135 86.2669 383.251)" stroke="#B0B0B0" stroke-width="2"/>
<rect x="171.12" y="298.399" width="60" height="60" transform="rotate(-135 171.12 298.399)" stroke="#B0B0B0" stroke-width="2"/>
<rect x="637.81" y="680.236" width="60" height="60" transform="rotate(-135 637.81 680.236)" stroke="#B0B0B0" stroke-width="2"/>
<rect x="722.663" y="595.384" width="60" height="60" transform="rotate(-135 722.663 595.384)" stroke="#B0B0B0" stroke-width="2"/>
<rect x="680.237" y="637.809" width="60" height="60" transform="rotate(-135 680.237 637.809)" stroke="#B0B0B0" stroke-width="2"/>
<rect x="765.089" y="552.957" width="60" height="60" transform="rotate(-135 765.089 552.957)" stroke="#B0B0B0" stroke-width="2"/>
<rect x="595.384" y="637.809" width="60" height="60" transform="rotate(-135 595.384 637.809)" stroke="#B0B0B0" stroke-width="2"/>
<rect x="680.237" y="552.957" width="60" height="60" transform="rotate(-135 680.237 552.957)" stroke="#B0B0B0" stroke-width="2"/>
<rect x="637.81" y="595.384" width="60" height="60" transform="rotate(-135 637.81 595.384)" stroke="#B0B0B0" stroke-width="2"/>
<rect x="722.663" y="510.531" width="60" height="60" transform="rotate(-135 722.663 510.531)" stroke="#B0B0B0" stroke-width="2"/>
<rect x="552.957" y="595.384" width="60" height="60" transform="rotate(-135 552.957 595.384)" stroke="#B0B0B0" stroke-width="2"/>
<rect x="637.81" y="510.531" width="60" height="60" transform="rotate(-135 637.81 510.531)" stroke="#B0B0B0" stroke-width="2"/>
<rect x="595.384" y="552.957" width="60" height="60" transform="rotate(-135 595.384 552.957)" stroke="#B0B0B0" stroke-width="2"/>
<rect x="680.237" y="468.104" width="60" height="60" transform="rotate(-135 680.237 468.104)" stroke="#B0B0B0" stroke-width="2"/>
<rect x="510.531" y="552.957" width="60" height="60" transform="rotate(-135 510.531 552.957)" stroke="#B0B0B0" stroke-width="2"/>
<rect x="595.384" y="468.104" width="60" height="60" transform="rotate(-135 595.384 468.104)" stroke="#B0B0B0" stroke-width="2"/>
<rect x="552.957" y="510.531" width="60" height="60" transform="rotate(-135 552.957 510.531)" stroke="#B0B0B0" stroke-width="2"/>
<rect x="637.81" y="425.678" width="60" height="60" transform="rotate(-135 637.81 425.678)" stroke="#B0B0B0" stroke-width="2"/>
<rect x="468.105" y="510.531" width="60" height="60" transform="rotate(-135 468.105 510.531)" stroke="#B0B0B0" stroke-width="2"/>
<rect x="552.957" y="425.678" width="60" height="60" transform="rotate(-135 552.957 425.678)" stroke="#B0B0B0" stroke-width="2"/>
<rect x="510.531" y="468.104" width="60" height="60" transform="rotate(-135 510.531 468.104)" stroke="#B0B0B0" stroke-width="2"/>
<rect x="595.384" y="383.251" width="60" height="60" transform="rotate(-135 595.384 383.251)" stroke="#B0B0B0" stroke-width="2"/>
<rect x="425.678" y="468.104" width="60" height="60" transform="rotate(-135 425.678 468.104)" stroke="#B0B0B0" stroke-width="2"/>
<rect x="510.531" y="383.251" width="60" height="60" transform="rotate(-135 510.531 383.251)" stroke="#B0B0B0" stroke-width="2"/>
<rect x="468.105" y="425.678" width="60" height="60" transform="rotate(-135 468.105 425.678)" stroke="#B0B0B0" stroke-width="2"/>
<rect x="552.957" y="340.825" width="60" height="60" transform="rotate(-135 552.957 340.825)" stroke="#B0B0B0" stroke-width="2"/>
<rect x="383.252" y="425.678" width="60" height="60" transform="rotate(-135 383.252 425.678)" stroke="#B0B0B0" stroke-width="2"/>
<rect x="468.105" y="340.825" width="60" height="60" transform="rotate(-135 468.105 340.825)" stroke="#B0B0B0" stroke-width="2"/>
<rect x="425.678" y="383.251" width="60" height="60" transform="rotate(-135 425.678 383.251)" stroke="#B0B0B0" stroke-width="2"/>
<rect x="510.531" y="298.399" width="60" height="60" transform="rotate(-135 510.531 298.399)" stroke="#B0B0B0" stroke-width="2"/>
<rect x="340.825" y="383.251" width="60" height="60" transform="rotate(-135 340.825 383.251)" stroke="#B0B0B0" stroke-width="2"/>
<rect x="425.678" y="298.399" width="60" height="60" transform="rotate(-135 425.678 298.399)" stroke="#B0B0B0" stroke-width="2"/>
<rect x="383.252" y="340.825" width="60" height="60" transform="rotate(-135 383.252 340.825)" stroke="#B0B0B0" stroke-width="2"/>
<rect x="468.105" y="255.972" width="60" height="60" transform="rotate(-135 468.105 255.972)" stroke="#B0B0B0" stroke-width="2"/>
<rect x="298.399" y="340.825" width="60" height="60" transform="rotate(-135 298.399 340.825)" stroke="#B0B0B0" stroke-width="2"/>
<rect x="383.252" y="255.972" width="60" height="60" transform="rotate(-135 383.252 255.972)" stroke="#B0B0B0" stroke-width="2"/>
<rect x="340.825" y="298.399" width="60" height="60" transform="rotate(-135 340.825 298.399)" stroke="#B0B0B0" stroke-width="2"/>
<rect x="425.678" y="213.546" width="60" height="60" transform="rotate(-135 425.678 213.546)" stroke="#B0B0B0" stroke-width="2"/>
<rect x="255.973" y="298.399" width="60" height="60" transform="rotate(-135 255.973 298.399)" stroke="#B0B0B0" stroke-width="2"/>
<rect x="340.825" y="213.546" width="60" height="60" transform="rotate(-135 340.825 213.546)" stroke="#B0B0B0" stroke-width="2"/>
<rect x="298.399" y="255.972" width="60" height="60" transform="rotate(-135 298.399 255.972)" stroke="#B0B0B0" stroke-width="2"/>
<rect x="383.252" y="171.119" width="60" height="60" transform="rotate(-135 383.252 171.119)" stroke="#B0B0B0" stroke-width="2"/>
<rect x="171.12" y="213.546" width="60" height="60" transform="rotate(-135 171.12 213.546)" stroke="#B0B0B0" stroke-width="2"/>
<rect x="255.973" y="128.693" width="60" height="60" transform="rotate(-135 255.973 128.693)" stroke="#B0B0B0" stroke-width="2"/>
<rect x="213.546" y="171.119" width="60" height="60" transform="rotate(-135 213.546 171.119)" stroke="#B0B0B0" stroke-width="2"/>
<rect x="298.399" y="86.2665" width="60" height="60" transform="rotate(-135 298.399 86.2665)" stroke="#B0B0B0" stroke-width="2"/>
<rect x="213.546" y="255.972" width="60" height="60" transform="rotate(-135 213.546 255.972)" stroke="#B0B0B0" stroke-width="2"/>
<rect x="298.399" y="171.119" width="60" height="60" transform="rotate(-135 298.399 171.119)" stroke="#B0B0B0" stroke-width="2"/>
<rect x="255.973" y="213.546" width="60" height="60" transform="rotate(-135 255.973 213.546)" stroke="#B0B0B0" stroke-width="2"/>
<rect x="340.825" y="128.693" width="60" height="60" transform="rotate(-135 340.825 128.693)" stroke="#B0B0B0" stroke-width="2"/>
</svg>
