<svg width="722" height="422" viewBox="0 0 722 422" fill="none" xmlns="http://www.w3.org/2000/svg">
<rect x="1" y="61" width="60" height="60" stroke="#B0B0B0" stroke-width="2"/>
<rect x="1" y="1" width="60" height="60" stroke="#B0B0B0" stroke-width="2"/>
<rect x="1" y="121" width="60" height="60" stroke="#B0B0B0" stroke-width="2"/>
<rect x="61" y="61" width="60" height="60" stroke="#B0B0B0" stroke-width="2"/>
<rect x="61" y="1" width="60" height="60" stroke="#B0B0B0" stroke-width="2"/>
<rect x="61" y="121" width="60" height="60" stroke="#B0B0B0" stroke-width="2"/>
<rect x="121" y="61" width="60" height="60" stroke="#B0B0B0" stroke-width="2"/>
<rect x="121" y="1" width="60" height="60" stroke="#B0B0B0" stroke-width="2"/>
<rect x="121" y="121" width="60" height="60" stroke="#B0B0B0" stroke-width="2"/>
<rect x="181" y="61" width="60" height="60" stroke="#B0B0B0" stroke-width="2"/>
<rect x="181" y="1" width="60" height="60" stroke="#B0B0B0" stroke-width="2"/>
<rect x="181" y="121" width="60" height="60" stroke="#B0B0B0" stroke-width="2"/>
<rect x="241" y="61" width="60" height="60" stroke="#B0B0B0" stroke-width="2"/>
<rect x="241" y="1" width="60" height="60" stroke="#B0B0B0" stroke-width="2"/>
<rect x="241" y="121" width="60" height="60" stroke="#B0B0B0" stroke-width="2"/>
<rect x="301" y="61" width="60" height="60" stroke="#B0B0B0" stroke-width="2"/>
<rect x="301" y="1" width="60" height="60" stroke="#B0B0B0" stroke-width="2"/>
<rect x="301" y="121" width="60" height="60" stroke="#B0B0B0" stroke-width="2"/>
<rect x="361" y="61" width="60" height="60" stroke="#B0B0B0" stroke-width="2"/>
<rect x="361" y="1" width="60" height="60" stroke="#B0B0B0" stroke-width="2"/>
<rect x="361" y="121" width="60" height="60" stroke="#B0B0B0" stroke-width="2"/>
<rect x="421" y="61" width="60" height="60" stroke="#B0B0B0" stroke-width="2"/>
<rect x="421" y="1" width="60" height="60" stroke="#B0B0B0" stroke-width="2"/>
<rect x="421" y="121" width="60" height="60" stroke="#B0B0B0" stroke-width="2"/>
<rect x="481" y="61" width="60" height="60" stroke="#B0B0B0" stroke-width="2"/>
<rect x="481" y="1" width="60" height="60" stroke="#B0B0B0" stroke-width="2"/>
<rect x="541" y="61" width="60" height="60" stroke="#B0B0B0" stroke-width="2"/>
<rect x="541" y="1" width="60" height="60" stroke="#B0B0B0" stroke-width="2"/>
<rect x="541" y="121" width="60" height="60" stroke="#B0B0B0" stroke-width="2"/>
<rect x="661" y="61" width="60" height="60" stroke="#B0B0B0" stroke-width="2"/>
<rect x="661" y="1" width="60" height="60" stroke="#B0B0B0" stroke-width="2"/>
<rect x="661" y="121" width="60" height="60" stroke="#B0B0B0" stroke-width="2"/>
<rect x="601" y="61" width="60" height="60" stroke="#B0B0B0" stroke-width="2"/>
<rect x="601" y="1" width="60" height="60" stroke="#B0B0B0" stroke-width="2"/>
<rect x="601" y="121" width="60" height="60" stroke="#B0B0B0" stroke-width="2"/>
<rect x="1" y="181" width="60" height="60" stroke="#B0B0B0" stroke-width="2"/>
<rect x="1" y="301" width="60" height="60" stroke="#B0B0B0" stroke-width="2"/>
<rect x="1" y="241" width="60" height="60" stroke="#B0B0B0" stroke-width="2"/>
<rect x="1" y="361" width="60" height="60" stroke="#B0B0B0" stroke-width="2"/>
<rect x="61" y="181" width="60" height="60" stroke="#B0B0B0" stroke-width="2"/>
<rect x="61" y="301" width="60" height="60" stroke="#B0B0B0" stroke-width="2"/>
<rect x="61" y="241" width="60" height="60" stroke="#B0B0B0" stroke-width="2"/>
<rect x="61" y="361" width="60" height="60" stroke="#B0B0B0" stroke-width="2"/>
<rect x="121" y="181" width="60" height="60" stroke="#B0B0B0" stroke-width="2"/>
<rect x="121" y="301" width="60" height="60" stroke="#B0B0B0" stroke-width="2"/>
<rect x="121" y="241" width="60" height="60" stroke="#B0B0B0" stroke-width="2"/>
<rect x="121" y="361" width="60" height="60" stroke="#B0B0B0" stroke-width="2"/>
<rect x="181" y="181" width="60" height="60" stroke="#B0B0B0" stroke-width="2"/>
<rect x="181" y="301" width="60" height="60" stroke="#B0B0B0" stroke-width="2"/>
<rect x="181" y="241" width="60" height="60" stroke="#B0B0B0" stroke-width="2"/>
<rect x="181" y="361" width="60" height="60" stroke="#B0B0B0" stroke-width="2"/>
<rect x="241" y="181" width="60" height="60" stroke="#B0B0B0" stroke-width="2"/>
<rect x="241" y="301" width="60" height="60" stroke="#B0B0B0" stroke-width="2"/>
<rect x="241" y="241" width="60" height="60" stroke="#B0B0B0" stroke-width="2"/>
<rect x="241" y="361" width="60" height="60" stroke="#B0B0B0" stroke-width="2"/>
<rect x="301" y="181" width="60" height="60" stroke="#B0B0B0" stroke-width="2"/>
<rect x="301" y="301" width="60" height="60" stroke="#B0B0B0" stroke-width="2"/>
<rect x="301" y="241" width="60" height="60" stroke="#B0B0B0" stroke-width="2"/>
<rect x="301" y="361" width="60" height="60" stroke="#B0B0B0" stroke-width="2"/>
<rect x="361" y="181" width="60" height="60" stroke="#B0B0B0" stroke-width="2"/>
<rect x="361" y="301" width="60" height="60" stroke="#B0B0B0" stroke-width="2"/>
<rect x="361" y="241" width="60" height="60" stroke="#B0B0B0" stroke-width="2"/>
<rect x="361" y="361" width="60" height="60" stroke="#B0B0B0" stroke-width="2"/>
<rect x="421" y="181" width="60" height="60" stroke="#B0B0B0" stroke-width="2"/>
<rect x="421" y="301" width="60" height="60" stroke="#B0B0B0" stroke-width="2"/>
<rect x="421" y="241" width="60" height="60" stroke="#B0B0B0" stroke-width="2"/>
<rect x="421" y="361" width="60" height="60" stroke="#B0B0B0" stroke-width="2"/>
<rect x="481" y="181" width="60" height="60" stroke="#B0B0B0" stroke-width="2"/>
<rect x="481" y="301" width="60" height="60" stroke="#B0B0B0" stroke-width="2"/>
<rect x="481" y="241" width="60" height="60" stroke="#B0B0B0" stroke-width="2"/>
<rect x="481" y="361" width="60" height="60" stroke="#B0B0B0" stroke-width="2"/>
<rect x="541" y="181" width="60" height="60" stroke="#B0B0B0" stroke-width="2"/>
<rect x="541" y="301" width="60" height="60" stroke="#B0B0B0" stroke-width="2"/>
<rect x="541" y="241" width="60" height="60" stroke="#B0B0B0" stroke-width="2"/>
<rect x="541" y="361" width="60" height="60" stroke="#B0B0B0" stroke-width="2"/>
<rect x="661" y="181" width="60" height="60" stroke="#B0B0B0" stroke-width="2"/>
<rect x="661" y="301" width="60" height="60" stroke="#B0B0B0" stroke-width="2"/>
<rect x="661" y="241" width="60" height="60" stroke="#B0B0B0" stroke-width="2"/>
<rect x="661" y="361" width="60" height="60" stroke="#B0B0B0" stroke-width="2"/>
<rect x="601" y="181" width="60" height="60" stroke="#B0B0B0" stroke-width="2"/>
<rect x="601" y="301" width="60" height="60" stroke="#B0B0B0" stroke-width="2"/>
<rect x="601" y="241" width="60" height="60" stroke="#B0B0B0" stroke-width="2"/>
<rect x="601" y="361" width="60" height="60" stroke="#B0B0B0" stroke-width="2"/>
<rect x="473" y="113" width="76" height="76" fill="#372C6B"/>
<path d="M170 322L220 372M170 372L220 322" stroke="#372C6B" stroke-width="5" stroke-linecap="round" stroke-linejoin="round"/>
<circle cx="104" cy="78" r="27.5" stroke="#372C6B" stroke-width="5"/>
</svg>
