<svg width="20" height="23" viewBox="0 0 20 23" fill="none" xmlns="http://www.w3.org/2000/svg">
<path d="M0.606377 5.28506H2.32096L3.06325 21.0142C3.11553 22.233 3.931 23 5.14375 23H14.8667C16.0795 23 16.9054 22.233 16.9577 21.0142L17.6895 5.28506H19.3936C19.7386 5.28506 20 5.01188 20 4.67565C20 4.32892 19.7282 4.05573 19.3936 4.05573H14.5426V2.35359C14.5426 0.882595 13.5912 0 12.0335 0H7.94564C6.39833 0 5.4574 0.882595 5.4574 2.35359V4.05573H0.606377C0.282279 4.05573 0 4.33942 0 4.67565C0 5.01188 0.282279 5.28506 0.606377 5.28506ZM6.90016 2.41663C6.90016 1.7757 7.3288 1.37643 8.01882 1.37643H11.9707C12.6712 1.37643 13.0998 1.7757 13.0998 2.41663V4.05573H6.90016V2.41663ZM6.74334 19.995C6.44015 19.995 6.23105 19.7953 6.2206 19.5011L5.87559 7.74372C5.87559 7.43901 6.08468 7.23938 6.39833 7.23938C6.69106 7.23938 6.90016 7.43901 6.91061 7.73321L7.25562 19.5011C7.26607 19.7848 7.05698 19.995 6.74334 19.995ZM10.0052 19.995C9.69158 19.995 9.47203 19.7953 9.47203 19.5011V7.74372C9.47203 7.44952 9.69158 7.23938 10.0052 7.23938C10.3189 7.23938 10.5384 7.44952 10.5384 7.74372V19.5011C10.5384 19.7953 10.3189 19.995 10.0052 19.995ZM13.2671 20.0055C12.943 20.0055 12.7444 19.7953 12.7444 19.5011L13.0894 7.73321C13.0998 7.43901 13.3194 7.24989 13.6121 7.24989C13.9258 7.24989 14.1349 7.44952 14.1244 7.74372L13.7794 19.5116C13.7689 19.8058 13.5703 20.0055 13.2671 20.0055Z" fill="white"/>
</svg>
