<svg width="22" height="22" viewBox="0 0 22 22" fill="none" xmlns="http://www.w3.org/2000/svg">
<path d="M20.9966 2.62931L21.7273 1.88915C22.0871 1.51908 22.0871 1.0705 21.7498 0.722852L21.2356 0.221522C20.9208 -0.103696 20.4486 -0.0588385 20.1114 0.277594L19.3694 1.00653L20.9966 2.62931ZM7.7119 14.576L9.766 13.8325L20.2322 3.38067L18.6162 1.76911L8.15007 12.221L7.43086 14.2845C7.35216 14.4415 7.54327 14.6433 7.7119 14.576ZM3.31634 22H16.4131C18.3804 22 19.5046 20.8786 19.5046 18.7254V6.75959L17.199 9.04722V17.7386C17.199 19.0395 16.4795 19.7012 15.4677 19.7012H4.25047C2.99139 19.7012 2.30563 19.0395 2.30563 17.7386V6.80434C2.30563 5.51468 2.99139 4.84181 4.25047 4.84181H13.0507L15.3564 2.54297H3.31634C1.12418 2.54297 0 3.6532 0 5.8288V18.7254C0 20.8898 1.12418 22 3.31634 22Z" fill="white"/>
</svg>
